<svg width="23" height="32" viewBox="0 0 23 32" fill="none" xmlns="http://www.w3.org/2000/svg">
  <symbol id='icon-Bitcoin' viewBox="0 0 23 32">
    <path d="M14.4822 32C13.543 32 12.5989 32 11.6597 32C11.6597 30.3995 11.6597 28.8041 11.6597 27.1576C10.9395 27.1576 10.2436 27.1576 9.55256 27.1576C9.38711 27.1576 9.42117 27.3007 9.42117 27.403C9.42117 28.937 9.42117 30.4711 9.42117 32C8.48196 32 7.53788 32 6.59867 32C6.59867 30.3688 6.59867 28.7376 6.59867 27.0706C4.70078 27.0706 2.83695 27.0706 0.987727 27.0706C0.973128 27.0195 0.968262 26.999 0.968262 26.9888C1.14345 25.8996 1.31864 24.8054 1.48896 23.7162C1.5133 23.5526 1.60576 23.5628 1.71282 23.5628C2.28705 23.5628 2.86615 23.5628 3.44039 23.5628C4.23361 23.5577 4.60832 23.1537 4.60832 22.3151C4.60832 18.0709 4.60832 13.8268 4.60832 9.58773C4.60832 8.66731 4.07301 8.06392 3.19707 8.01278C2.73476 7.98722 2.27245 7.98722 1.81015 7.9821C1.5279 7.97699 1.25051 7.9821 0.968262 7.9821C0.968262 6.92362 0.968262 5.89581 0.968262 4.83733C2.85155 4.83733 4.72024 4.83733 6.59867 4.83733C6.59867 3.20102 6.59867 1.60051 6.59867 0C7.53788 0 8.48196 0 9.42117 0C9.42117 1.50847 9.42117 3.01694 9.41144 4.52541C9.41144 4.70438 9.46497 4.76063 9.63529 4.75551C10.1219 4.73506 10.6086 4.73506 11.0952 4.72995C11.2753 4.72995 11.4602 4.72995 11.6597 4.72995C11.6597 3.11921 11.6597 1.5596 11.6597 0C12.5989 0 13.543 0 14.4822 0C14.4773 0.102269 14.4725 0.204538 14.4725 0.306807C14.4725 1.6721 14.4725 3.03228 14.4725 4.39757C14.4725 4.86801 14.4725 4.8629 14.9299 4.91403C16.1806 5.05721 17.4118 5.29243 18.57 5.86002C19.66 6.39182 20.5117 7.16906 20.9594 8.37584C21.2806 9.24513 21.3584 10.1451 21.2951 11.0604C21.1881 12.6251 20.4971 13.8166 19.2075 14.6143C19.1199 14.6705 19.0323 14.7216 18.9106 14.7932C18.9885 14.8341 19.0225 14.8495 19.0615 14.8648C19.5432 15.054 20.0494 15.2023 20.5117 15.4477C21.6358 16.046 22.4436 16.946 22.7599 18.2653C23.0811 19.5845 23.0081 20.9038 22.6967 22.2077C22.4242 23.3378 21.9132 24.3298 21.0567 25.0968C20.0883 25.9661 18.9252 26.4263 17.7038 26.682C16.7305 26.8814 15.7329 26.9632 14.7401 27.0757C14.526 27.1013 14.4676 27.1729 14.4725 27.3877C14.4871 27.7814 14.4773 28.17 14.4773 28.5638C14.4773 29.6989 14.4773 30.8495 14.4822 32ZM9.4747 23.5628C10.3458 23.5628 11.1731 23.5833 11.9955 23.5577C13.1148 23.5219 14.2292 23.3941 15.29 22.985C15.9567 22.7293 16.5894 22.3867 16.9689 21.7168C17.7135 20.4129 17.3242 18.7613 16.0735 17.9891C15.1635 17.4267 14.1513 17.1761 13.105 17.125C11.9955 17.0738 10.886 17.0892 9.77642 17.0585C9.5331 17.0534 9.46497 17.125 9.46497 17.3857C9.4747 19.3442 9.46984 21.3027 9.46984 23.2611C9.4747 23.3531 9.4747 23.4452 9.4747 23.5628ZM9.47957 11.1371C9.47957 12.0473 9.47957 12.9626 9.47957 13.8728C9.47957 14.016 9.48443 14.1131 9.66936 14.1182C11.0903 14.1438 12.5065 14.1387 13.8934 13.7501C14.6136 13.5455 15.2414 13.1774 15.6793 12.5484C16.346 11.5871 16.1222 9.99681 15.2414 9.22467C14.526 8.60083 13.6549 8.3605 12.7644 8.2838C11.7473 8.19687 10.7254 8.22244 9.70342 8.18664C9.5039 8.18153 9.47957 8.27868 9.47957 8.45254C9.47957 9.3474 9.4747 10.2423 9.47957 11.1371Z" fill="white"/>
  </symbol>
  <symbol id='icon-THETA' viewBox="0 0 480.105 480.105">
    <path d="m310.054 107.051h-140c-4.411 0-8 3.589-8 8v250c0 4.411 3.589 8 8 8h140c4.411 0 8-3.589 8-8v-250c0-4.411-3.589-8-8-8zm-13 194c0 4.418-3.582 8-8 8h-17c-2.209 0-4 1.791-4 4v35c0 4.418-3.582 8-8 8h-40c-4.418 0-8-3.582-8-8v-35c0-2.209-1.791-4-4-4h-17c-4.418 0-8-3.582-8-8v-40c0-4.418 3.582-8 8-8h98c4.418 0 8 3.582 8 8zm0-82c0 4.418-3.582 8-8 8h-98c-4.418 0-8-3.582-8-8v-40c0-4.418 3.582-8 8-8h17c2.209 0 4-1.791 4-4v-35c0-4.418 3.582-8 8-8h40c4.418 0 8 3.582 8 8v35c0 2.209 1.791 4 4 4h17c4.418 0 8 3.582 8 8z" fill="#ffffff" />
    <path d="m409.764 70.341c-93.772-93.772-245.817-93.862-339.6.17-93.53 93.778-93.624 245.446.18 339.25 93.792 93.793 245.762 93.845 339.56-.16 93.578-93.785 93.664-245.455-.14-339.26zm-169.71 367.71c-109.178 0-198-88.822-198-198s88.822-198 198-198c104.725 0 190.913 81.415 197.586 185.098 7.37 116.13-84.763 210.902-197.586 210.902z" fill="#ffffff" />
  </symbol>
  <symbol id='icon-Ethereum' viewBox="0 0 23 37">
    <path d="M12.3679 0.0072294C13.2586 1.56878 14.1425 3.13033 15.0333 4.68465C17.5329 9.05121 20.0395 13.4105 22.5461 17.7771C22.5944 17.8566 22.6358 17.9434 22.7187 18.0952C22.5668 18.0301 22.4632 17.994 22.3665 17.9506C19.1142 16.4613 15.8619 14.9649 12.6096 13.4828C12.3679 13.3744 12.2988 13.2443 12.2988 12.9768C12.3057 8.71142 12.3057 4.44608 12.3057 0.180735C12.3057 0.1229 12.2988 0.0578352 12.2988 0C12.3264 0.0072294 12.3472 0.0072294 12.3679 0.0072294Z" fill="white"/>
    <path d="M11.6091 0.00732422C11.6091 4.3305 11.6091 8.65368 11.616 12.9841C11.616 13.2444 11.5539 13.3817 11.3122 13.4902C8.08749 14.9577 4.86969 16.4397 1.6519 17.9145C1.58285 17.9507 1.50689 17.9724 1.35498 18.0374C1.44475 17.8639 1.49308 17.7483 1.55523 17.6398C4.83517 11.8708 8.11511 6.10171 11.395 0.325418C11.4503 0.224206 11.4917 0.108536 11.5401 0.00732422C11.5677 0.00732422 11.5884 0.00732422 11.6091 0.00732422Z" fill="white"/>
    <path d="M12.3203 25.5491C12.3203 21.7175 12.3203 17.9655 12.3203 14.1411C15.8696 15.7677 19.3843 17.3799 22.968 19.021C19.3912 21.2115 15.8765 23.3658 12.3203 25.5491Z" fill="white"/>
    <path d="M11.5815 25.5271C8.04603 23.3583 4.54512 21.2112 0.968262 19.0207C4.53822 17.3796 8.05293 15.7747 11.5815 14.1553C11.5815 17.9652 11.5815 21.7317 11.5815 25.5271Z" fill="white"/>
    <path d="M22.7748 21.5361C19.3154 26.6617 15.849 31.7946 12.3412 36.9853C12.3205 36.8262 12.3066 36.7395 12.3066 36.6527C12.3066 33.8116 12.3066 30.9704 12.3135 28.1293C12.3135 28.0064 12.3964 27.8256 12.4931 27.7606C15.8697 25.6785 19.2532 23.6037 22.6367 21.5361C22.6643 21.5216 22.6989 21.5071 22.7265 21.4927C22.7472 21.5071 22.761 21.5216 22.7748 21.5361Z" fill="white"/>
    <path d="M1.20954 21.4858C2.73557 22.4257 4.26161 23.3583 5.78764 24.2908C7.64513 25.4259 9.4957 26.5609 11.3532 27.6959C11.5051 27.7899 11.6225 27.8622 11.6225 28.1007C11.6156 30.978 11.6156 33.8553 11.6156 36.7326C11.6156 36.7905 11.6087 36.8411 11.5949 37.0001C8.08015 31.795 4.61377 26.6621 1.1543 21.5364C1.16811 21.5148 1.18882 21.5003 1.20954 21.4858Z" fill="white"/>
  </symbol>
  <symbol id='icon-Litecoin' viewBox="0 0 512 512" >
    <path d="m437.019531 74.980469c-48.351562-48.351563-112.640625-74.980469-181.019531-74.980469s-132.667969 26.628906-181.019531 74.980469c-48.351563 48.351562-74.980469 112.640625-74.980469 181.019531s26.628906 132.667969 74.980469 181.019531c48.351562 48.351563 112.640625 74.980469 181.019531 74.980469s132.667969-26.628906 181.019531-74.980469c48.351563-48.351562 74.980469-112.640625 74.980469-181.019531s-26.628906-132.667969-74.980469-181.019531zm-181.019531 397.019531c-119.101562 0-216-96.898438-216-216s96.898438-216 216-216 216 96.898438 216 216-96.898438 216-216 216zm-61.800781-120h188.445312l-10.644531 40h-229.839844l33.183594-125.398438-64.34375 23.398438 12.472656-47.15625 64.351563-23.398438 35.578125-134.445312h41.410156l-31.148438 117.773438 65.808594-23.929688-12.472656 47.15625-65.808594 23.929688zm0 0" fill='white'/>
  </symbol>
  <symbol id='icon-Dash' viewBox="0 0 409.6 409.6" >
    <path  d="M204.800781 409.601562c-112.925781 0-204.800781-91.875-204.800781-204.800781s91.875-204.800781 204.800781-204.800781 204.800781 91.875 204.800781 204.800781-91.875 204.800781-204.800781 204.800781zm0-395.949218c-105.402343 0-191.148437 85.746094-191.148437 191.148437 0 105.398438 85.746094 191.144531 191.148437 191.144531 105.398438 0 191.144531-85.746093 191.144531-191.144531 0-105.402343-85.746093-191.148437-191.144531-191.148437zm0 0" fill="white"/>
    <path d="M204.800781 389.121094c-101.632812 0-184.320312-82.6875-184.320312-184.320313 0-101.632812 82.6875-184.320312 184.320312-184.320312 101.632813 0 184.320313 82.6875 184.320313 184.320312 0 101.632813-82.6875 184.320313-184.320313 184.320313zm0-354.988282c-94.109375 0-170.667969 76.558594-170.667969 170.667969 0 94.105469 76.558594 170.664063 170.667969 170.664063 94.105469 0 170.664063-76.558594 170.664063-170.664063 0-94.109375-76.558594-170.667969-170.664063-170.667969zm0 0" fill="white"/>
    <path d="M266.238281 300.375h-157.011719c-2.101562 0-4.085937-.96875-5.378906-2.628906-1.292968-1.652344-1.753906-3.8125-1.246094-5.851563l13.65625-54.613281c.757813-3.042969 3.488282-5.175781 6.621094-5.175781h115.980469l12.136719-54.613281h-114.460938c-2.105468 0-4.089844-.964844-5.382812-2.625-1.292969-1.652344-1.75-3.8125-1.242188-5.855469l13.652344-54.613281c.761719-3.039063 3.492188-5.171876 6.625-5.171876h143.359375c10.40625 0 20.109375 4.652344 26.625 12.773438 6.511719 8.117188 8.957031 18.605469 6.695313 28.765625l-27.304688 122.878906c-3.5 15.742188-17.203125 26.730469-33.324219 26.730469zm-148.269531-13.65625h148.269531c9.675781 0 17.894531-6.589844 19.996094-16.03125l27.304687-122.882812c1.355469-6.097657-.109374-12.394532-4.015624-17.257813-3.910157-4.875-9.734376-7.667969-15.976563-7.667969h-138.03125l-10.238281 40.960938h114.230468c2.070313 0 4.027344.941406 5.324219 2.554687 1.296875 1.617188 1.789063 3.734375 1.339844 5.75l-15.171875 68.269531c-.695312 3.125-3.464844 5.347657-6.664062 5.347657h-116.125zm0 0" fill="white"/>
    <path d="M170.667969 225.28125h-81.921875c-2.367188 0-4.5625-1.226562-5.804688-3.242188-1.242187-2.011718-1.359375-4.523437-.300781-6.640624l13.652344-27.304688c1.15625-2.316406 3.519531-3.773438 6.105469-3.773438h81.921874c2.367188 0 4.5625 1.226563 5.804688 3.238282 1.242188 2.011718 1.359375 4.527344.300781 6.640625l-13.652343 27.308593c-1.15625 2.3125-3.519532 3.773438-6.105469 3.773438zm-70.875-13.65625h66.65625l6.824219-13.652344h-66.652344zm0 0" fill="white"/>
  </symbol>
  <symbol id='icon-Zcash' viewBox="0 0 385 385">
    <path d="m192 0c-105.871094 0-192 86.128906-192 192s86.128906 192 192 192 192-86.128906 192-192-86.128906-192-192-192zm0 352c-88.222656 0-160-71.777344-160-160s71.777344-160 160-160 160 71.777344 160 160-71.777344 160-160 160zm0 0" fill="white" />
    <path d="m208 80h-32v32h-48v32h84.070312l-84.070312 98.078125v29.921875h48v32h32v-32h48v-32h-84.070312l84.070312-98.078125v-29.921875h-48zm0 0" fill="white" />
  </symbol>
</svg>