<svg viewBox="0 0 17 20" xmlns="http://www.w3.org/2000/svg">
  <symbol id='icon-overview' viewBox="0 0 17 20">
    <path d="M0.998535 2C0.998535 3.10457 1.89397 4 2.99854 4V4C4.1031 4 4.99854 3.10457 4.99854 2V2C4.99854 0.895431 4.1031 0 2.99854 0V0C1.89397 0 0.998535 0.895431 0.998535 2V2ZM6.99854 14C6.99854 15.1046 7.89397 16 8.99854 16V16C10.1031 16 10.9985 15.1046 10.9985 14V14C10.9985 12.8954 10.1031 12 8.99854 12V12C7.89397 12 6.99854 12.8954 6.99854 14V14ZM0.998535 14C0.998535 15.1046 1.89397 16 2.99854 16V16C4.1031 16 4.99854 15.1046 4.99854 14V14C4.99854 12.8954 4.1031 12 2.99854 12V12C1.89397 12 0.998535 12.8954 0.998535 14V14ZM0.998535 8C0.998535 9.10457 1.89397 10 2.99854 10V10C4.1031 10 4.99854 9.10457 4.99854 8V8C4.99854 6.89543 4.1031 6 2.99854 6V6C1.89397 6 0.998535 6.89543 0.998535 8V8ZM6.99854 8C6.99854 9.10457 7.89397 10 8.99854 10V10C10.1031 10 10.9985 9.10457 10.9985 8V8C10.9985 6.89543 10.1031 6 8.99854 6V6C7.89397 6 6.99854 6.89543 6.99854 8V8ZM14.9985 0C13.894 0 12.9985 0.895431 12.9985 2V2C12.9985 3.10457 13.894 4 14.9985 4V4C16.1031 4 16.9985 3.10457 16.9985 2V2C16.9985 0.895431 16.1031 0 14.9985 0V0ZM6.99854 2C6.99854 3.10457 7.89397 4 8.99854 4V4C10.1031 4 10.9985 3.10457 10.9985 2V2C10.9985 0.895431 10.1031 0 8.99854 0V0C7.89397 0 6.99854 0.895431 6.99854 2V2ZM12.9985 8C12.9985 9.10457 13.894 10 14.9985 10V10C16.1031 10 16.9985 9.10457 16.9985 8V8C16.9985 6.89543 16.1031 6 14.9985 6V6C13.894 6 12.9985 6.89543 12.9985 8V8ZM12.9985 14C12.9985 15.1046 13.894 16 14.9985 16V16C16.1031 16 16.9985 15.1046 16.9985 14V14C16.9985 12.8954 16.1031 12 14.9985 12V12C13.894 12 12.9985 12.8954 12.9985 14V14Z"/>
  </symbol>
  <symbol id='icon-wallets' viewBox="0 0 17 20">
    <path d="M15.544 0H2.45308C1.65308 0 0.998535 0.65 0.998535 1.44444V11.5556C0.998535 12.35 1.65308 13 2.45308 13H15.544C16.344 13 16.9985 12.35 16.9985 11.5556V1.44444C16.9985 0.65 16.344 0 15.544 0ZM8.99854 5.77778H2.45308V4.33333H8.99854V5.77778ZM8.99854 2.88889H2.45308V1.44444H8.99854V2.88889Z"/>
  </symbol>
  <symbol id='icon-transictions' viewBox="0 0 17 20">
    <path d="M7.59854 5.15L2.39854 0L0.998535 1.4L6.14853 6.55L7.59854 5.15ZM11.4985 0L13.5485 2.05L0.998535 14.6L2.39854 16L14.9485 3.45L16.9985 5.5V0H11.4985ZM11.8485 9.4L10.4485 10.8L13.5985 13.95L11.4985 16H16.9985V10.5L14.9485 12.55L11.8485 9.4Z"/>
  </symbol>
  <symbol id='icon-exchange' viewBox="0 0 17 20">
    <path d="M6.33184 11.4828L7.3985 10.4042L3.87852 6.84462L16.2518 6.84462V5.3345L3.87852 5.3345L7.3985 1.77494L6.33184 0.696289L0.998535 6.08956L6.33184 11.4828Z"/>
    <path d="M11.6651 8.51672L10.5985 9.59538L14.1185 13.1549H1.7452L1.7452 14.6651H14.1185L10.5985 18.2246L11.6651 19.3033L16.9985 13.91L11.6651 8.51672Z"/>
  </symbol>
  <symbol id='icon-market' viewBox="0 0 17 20">
    <path d="M15.2208 0H2.77631C1.79854 0 0.998535 0.8 0.998535 1.77778V14.2222C0.998535 15.2 1.79854 16 2.77631 16H15.2208C16.1985 16 16.9985 15.2 16.9985 14.2222V1.77778C16.9985 0.8 16.1985 0 15.2208 0ZM6.33187 12.4444H4.55409V6.22222H6.33187V12.4444ZM9.88742 12.4444H8.10965V3.55556H9.88742V12.4444ZM13.443 12.4444H11.6652V8.88889H13.443V12.4444Z"/>
  </symbol>  
</svg>